<svg xmlns="http://www.w3.org/2000/svg"  viewBox="0 0 284.619 75.827">
  <g id="Group_24943" data-name="Group 24943" transform="translate(-0.001 -627.894)">
    <path id="path4" d="M36.4,265.677c6.036,2.105,7.917,4.386,7.917,8.832,0,5.965-4.614,9.063-12.814,9.063A28.32,28.32,0,0,1,19.542,281v-7.309a24.008,24.008,0,0,0,11.445,3.158c3.415,0,5.125-.937,5.125-2.691,0-1.168-.455-1.87-2.221-2.516l-7.118-2.456c-5.864-2.046-7.857-4.326-7.857-8.712,0-5.849,4.67-8.6,12.527-8.6a27.912,27.912,0,0,1,10.761,1.93v7.133a23.649,23.649,0,0,0-10.25-2.34c-3.475,0-4.9.642-4.9,2.281,0,1.053.4,1.695,2.277,2.34Z" transform="translate(-18.914 387.712)" fill="#fff"/>
    <path id="path6" d="M68.022,282.87H59.877V255.912a21.988,21.988,0,0,1,12.471-4.035c3.7,0,6.547.817,8.6,2.4a15.242,15.242,0,0,1,8.484-2.4c8.656,0,12.643,4.211,12.643,12.867v18.13H93.931V265.154c0-4.621-1.594-6.551-5.181-6.551a8.992,8.992,0,0,0-4.326,1.112,19.307,19.307,0,0,1,.571,5.028v18.13H76.85V265.154c0-4.621-1.594-6.551-5.181-6.551a7.507,7.507,0,0,0-3.643,1.053V282.87Z" transform="translate(-28.786 387.712)" fill="#fff"/>
    <path id="path8" d="M122.754,273.218c0-6.607,3.759-9.358,11.732-9.358a20.09,20.09,0,0,1,7.29,1.344c0-4.561-1.65-6.551-6.491-6.551a19.448,19.448,0,0,0-9.739,2.572v-7.017a25.778,25.778,0,0,1,11.217-2.34c8.768,0,13.21,3.919,13.21,12.221V279.7a26.011,26.011,0,0,1-14.009,3.86C126.282,283.569,122.754,280,122.754,273.218Zm19.018,2.867v-5.674a14.206,14.206,0,0,0-5.636-1.053c-3.987,0-5.241,1.344-5.241,3.86,0,2.572,1.422,3.975,5.241,3.975A13.253,13.253,0,0,0,141.772,276.085Z" transform="translate(-43.941 387.714)" fill="#fff"/>
    <path id="path10" d="M190.1,261.175a20.823,20.823,0,0,0-10.25-2.456,10.958,10.958,0,0,0-4.841,1.112V282.87h-8.141V255.852a25.283,25.283,0,0,1,13.553-3.975,22.071,22.071,0,0,1,9.683,1.99v7.309Z" transform="translate(-54.572 387.712)" fill="#fff"/>
    <path id="path12" d="M208.272,249.924v-9.063h8.2v9.063h8.085v6.726h-8.085v14.035c0,2.456.8,3.509,2.848,3.509a15.221,15.221,0,0,0,5.241-.937v6.256a17.665,17.665,0,0,1-7.29,1.4c-6.435,0-9-3.684-9-9.709V256.646h-4.841V249.92h4.838Z" transform="translate(-63.385 390.367)" fill="#fff"/>
    <path id="path14" d="M243.907,269.07c0,5.674,3.415,7.779,7.63,7.779a15.946,15.946,0,0,0,8.656-2.34v7.077a22,22,0,0,1-9.4,1.99c-10.134,0-15.032-5.2-15.032-14.5v-2.7c0-9.3,4.9-14.5,15.032-14.5a21.984,21.984,0,0,1,9.4,1.99v7.077a16.367,16.367,0,0,0-8.54-2.34c-4.27,0-7.745,1.99-7.745,7.779Z" transform="translate(-71.177 387.712)" fill="#fff"/>
    <path id="path16" d="M274.711,273.218c0-6.607,3.759-9.358,11.732-9.358a20.09,20.09,0,0,1,7.29,1.344c0-4.561-1.65-6.551-6.491-6.551a19.448,19.448,0,0,0-9.739,2.572v-7.017a25.778,25.778,0,0,1,11.217-2.34c8.768,0,13.21,3.919,13.21,12.221V279.7a26.012,26.012,0,0,1-14.009,3.86C278.243,283.569,274.711,280,274.711,273.218Zm19.018,2.867v-5.674a14.206,14.206,0,0,0-5.636-1.053c-3.986,0-5.241,1.344-5.241,3.86,0,2.572,1.422,3.975,5.241,3.975A13.252,13.252,0,0,0,293.73,276.085Z" transform="translate(-80.564 387.714)" fill="#fff"/>
    <path id="path18" d="M333.822,265.677c6.036,2.105,7.917,4.386,7.917,8.832,0,5.965-4.614,9.063-12.814,9.063A28.32,28.32,0,0,1,316.965,281v-7.309a24.008,24.008,0,0,0,11.445,3.158c3.415,0,5.125-.937,5.125-2.691,0-1.168-.455-1.87-2.221-2.516l-7.118-2.456c-5.864-2.046-7.857-4.326-7.857-8.712,0-5.849,4.67-8.6,12.527-8.6a27.9,27.9,0,0,1,10.761,1.93v7.133a23.649,23.649,0,0,0-10.25-2.34c-3.475,0-4.9.642-4.9,2.281,0,1.053.4,1.695,2.277,2.34Z" transform="translate(-90.597 387.712)" fill="#fff"/>
    <path id="path20" d="M375.927,279.156V261.437c0-4.5-1.194-6.551-5.181-6.551a9.045,9.045,0,0,0-5.3,1.93v22.337H357.3V236.469h8.145v13.568a15.937,15.937,0,0,1,7.346-1.87c7.857,0,11.277,4.035,11.277,12.867v18.13h-8.145Z" transform="translate(-100.47 391.425)" fill="#fff"/>
    <path id="path22" d="M302.978,319.585q0,4.02-2.617,5.819t-7.432,1.8h-8.149q-2.083,0-2.083-2.008v-22.4a1.82,1.82,0,0,1,.549-1.366,2.283,2.283,0,0,1,1.65-.53h7.656a13.032,13.032,0,0,1,7.014,1.613q2.542,1.613,2.538,5.439a7.012,7.012,0,0,1-.265,1.99,5.735,5.735,0,0,1-.72,1.571,5,5,0,0,1-1.06,1.157,8.323,8.323,0,0,1-1.25.814,6.346,6.346,0,0,1,1.934,1,5.5,5.5,0,0,1,1.288,1.422,5.948,5.948,0,0,1,.72,1.743A8.232,8.232,0,0,1,302.978,319.585Zm-6.331-11.146a3.693,3.693,0,0,0-.19-1.176,2.733,2.733,0,0,0-1.724-1.743,5.062,5.062,0,0,0-1.762-.265h-5.08v6.405h5.08a5.061,5.061,0,0,0,1.762-.265,2.877,2.877,0,0,0,1.12-.72,2.759,2.759,0,0,0,.6-1.041A3.842,3.842,0,0,0,296.648,308.439Zm.873,10.993a4.642,4.642,0,0,0-.19-1.325,2.657,2.657,0,0,0-.683-1.138,3.423,3.423,0,0,0-1.288-.776,5.884,5.884,0,0,0-1.971-.284h-5.5v6.976h5.5a4.152,4.152,0,0,0,3.165-1.041A3.459,3.459,0,0,0,297.521,319.432Z" transform="translate(-82.49 375.898)" fill="#fff"/>
    <path id="path24" d="M330.179,327.345a2.05,2.05,0,0,1-.549,1.594,2.81,2.81,0,0,1-1.878.493,3.026,3.026,0,0,1-1.8-.474,1.845,1.845,0,0,1-.664-1.613v-.683a13.207,13.207,0,0,1-.929,1.06,5.423,5.423,0,0,1-1.25.948,7.454,7.454,0,0,1-1.724.683,8.844,8.844,0,0,1-2.273.265,6.733,6.733,0,0,1-4.718-1.572,5.4,5.4,0,0,1-1.725-4.188,5.929,5.929,0,0,1,.511-2.579,5.1,5.1,0,0,1,1.4-1.781,6.89,6.89,0,0,1,2.087-1.138,15.659,15.659,0,0,1,2.52-.646c.959-.175,1.926-.317,2.9-.418s2.027-.19,3.165-.265v-.72a4.221,4.221,0,0,0-.153-1.12,2.816,2.816,0,0,0-.511-1,2.413,2.413,0,0,0-1-.72,4.222,4.222,0,0,0-1.594-.265,8.007,8.007,0,0,0-1.12.075,5.438,5.438,0,0,0-.985.246,5.613,5.613,0,0,0-.985.474c-.34.2-.728.444-1.157.72a8.323,8.323,0,0,1-.929.567,2.3,2.3,0,0,1-1.079.228,2.3,2.3,0,0,1-2.236-2.277,2.414,2.414,0,0,1,.53-1.385,5.1,5.1,0,0,1,1.612-1.366,10.751,10.751,0,0,1,2.654-1.041,14.6,14.6,0,0,1,3.7-.418q4.362,0,6.275,1.706t1.915,5.308v11.306Zm-4.927-7.126c-.959.1-1.878.217-2.747.34s-1.523.239-1.952.34a4.1,4.1,0,0,0-2.37,1.079,2.292,2.292,0,0,0-.549,1.422,1.966,1.966,0,0,0,.6,1.534,3.108,3.108,0,0,0,2.087.549,5.506,5.506,0,0,0,3.639-1.079,3.47,3.47,0,0,0,1.288-2.785v-1.4Z" transform="translate(-89.713 373.938)" fill="#fff"/>
    <path id="path26" d="M352.689,309.039a7.585,7.585,0,0,1,3.281.627,6.5,6.5,0,0,1,2.255,1.8,5.78,5.78,0,0,1,1.176,2.863,24.834,24.834,0,0,1,.19,2.975v10.045a1.884,1.884,0,0,1-.646,1.594,3.232,3.232,0,0,1-1.971.493,3.442,3.442,0,0,1-1.878-.474,1.772,1.772,0,0,1-.739-1.616v-9.955a6.342,6.342,0,0,0-.34-2.43,2,2,0,0,0-1.041-1.064,4.85,4.85,0,0,0-3.43.022,4.2,4.2,0,0,0-1.213.8,3.683,3.683,0,0,0-.758,1.008,5.119,5.119,0,0,0-.381.989,6.257,6.257,0,0,0-.209,1.557c-.015.582-.019,1.079-.019,1.482v7.484a2.069,2.069,0,0,1-.627,1.691,3.27,3.27,0,0,1-2.068.511,3.12,3.12,0,0,1-1.859-.493,1.876,1.876,0,0,1-.683-1.631V311.66a2.377,2.377,0,0,1,.586-1.669,2.654,2.654,0,0,1,2.027-.646,3.425,3.425,0,0,1,1.743.437,1.861,1.861,0,0,1,.758,1.762V312a7.055,7.055,0,0,1,2.292-2.064A6.793,6.793,0,0,1,352.689,309.039Z" transform="translate(-96.717 373.934)" fill="#fff"/>
    <path id="path28" d="M373.944,327.384q-2.693,0-2.691-2.046V302.782q0-2.234,2.729-2.236a3.432,3.432,0,0,1,1.762.455,1.649,1.649,0,0,1,.776,1.553v11.56l5.722-5.308a10.419,10.419,0,0,1,1.325-1.1,2.471,2.471,0,0,1,1.4-.381,2.209,2.209,0,0,1,1.041.246,3.244,3.244,0,0,1,.814.586,2.316,2.316,0,0,1,.474.683,2.085,2.085,0,0,1,.172.874,2.307,2.307,0,0,1-.911,1.631l-4.322,3.792,5.722,8.794a2.582,2.582,0,0,1,.493,1.366,1.844,1.844,0,0,1-.739,1.478,2.985,2.985,0,0,1-1.952.6,2.49,2.49,0,0,1-1.706-.567,6.844,6.844,0,0,1-1.25-1.553l-4.434-6.977-1.859,1.743v5.23a1.876,1.876,0,0,1-.683,1.631A3.152,3.152,0,0,1,373.944,327.384Z" transform="translate(-103.833 375.981)" fill="#fff"/>
    <path id="path32" d="M193.736,311.29a.8.8,0,0,1-.508-.142.635.635,0,0,1-.175-.511V300.79a.637.637,0,0,1,.2-.526.831.831,0,0,1,.53-.16h2.833a4.847,4.847,0,0,1,3.18.862,3.069,3.069,0,0,1,1.012,2.475,4.073,4.073,0,0,1-.149,1.023,2.7,2.7,0,0,1-.594,1.086,3.5,3.5,0,0,1-1.228.862,5.044,5.044,0,0,1-2.049.351h-2.359v3.878a.613.613,0,0,1-.183.511A.807.807,0,0,1,193.736,311.29Zm2.691-5.73a5.379,5.379,0,0,0,1.407-.153,2.434,2.434,0,0,0,.911-.429,1.579,1.579,0,0,0,.489-.668,2.4,2.4,0,0,0,.149-.87,2.519,2.519,0,0,0-.142-.855,1.632,1.632,0,0,0-.474-.679,2.358,2.358,0,0,0-.87-.448,4.669,4.669,0,0,0-1.329-.161H194.43v4.263Z" transform="translate(-60.883 376.088)" fill="#fff"/>
    <path id="path34" d="M209.369,307.069v-.321a1.8,1.8,0,0,0-.467-1.355,2.127,2.127,0,0,0-1.512-.448,2.339,2.339,0,0,0-1.228.321,1.583,1.583,0,0,0-.347.272c-.09.1-.168.183-.231.254a1.066,1.066,0,0,1-.269.254.58.58,0,0,1-.284.063.768.768,0,0,1-.467-.153.461.461,0,0,1-.213-.392.813.813,0,0,1,.022-.209,1.234,1.234,0,0,1,.071-.175,1.67,1.67,0,0,1,.19-.273,2.457,2.457,0,0,1,.53-.478,3.754,3.754,0,0,1,.918-.455,4.087,4.087,0,0,1,1.37-.2,4.44,4.44,0,0,1,1.527.231,2.668,2.668,0,0,1,1,.616,2.315,2.315,0,0,1,.552.885,3.183,3.183,0,0,1,.175,1.045v5.091c0,.351-.228.526-.679.526-.306,0-.493-.071-.564-.209a1.328,1.328,0,0,1-.1-.575v-.478a4.359,4.359,0,0,1-.381.463,2.725,2.725,0,0,1-.545.44,3.038,3.038,0,0,1-.776.328,3.8,3.8,0,0,1-1.038.127,3.863,3.863,0,0,1-1.228-.175,2.406,2.406,0,0,1-.855-.485,1.96,1.96,0,0,1-.508-.735,2.414,2.414,0,0,1-.168-.9,2.976,2.976,0,0,1,.22-1.15,2.084,2.084,0,0,1,.762-.9,4.2,4.2,0,0,1,1.433-.59,10.906,10.906,0,0,1,2.255-.246Zm-.87,1.083a9.735,9.735,0,0,0-1.646.142,3.212,3.212,0,0,0-1,.343,1.165,1.165,0,0,0-.5.519,1.67,1.67,0,0,0-.134.687,1.3,1.3,0,0,0,.373.933,1.632,1.632,0,0,0,1.228.392,2.7,2.7,0,0,0,1.351-.343,2.481,2.481,0,0,0,.926-.855,2.187,2.187,0,0,0,.269-1.165v-.672Z" transform="translate(-63.489 375.203)" fill="#fff"/>
    <path id="path36" d="M217.4,315.083a1.08,1.08,0,0,1-.239.336.565.565,0,0,1-.381.112.717.717,0,0,1-.459-.153.51.51,0,0,1-.19-.422,1,1,0,0,1,.022-.19,1.067,1.067,0,0,1,.1-.272l1.157-2.617-2.77-6.734c-.041-.1-.086-.205-.127-.295a.64.64,0,0,1-.063-.265.488.488,0,0,1,.246-.429.971.971,0,0,1,.545-.161q.364,0,.538.448l2.359,5.842,2.486-5.872a.846.846,0,0,1,.205-.317.452.452,0,0,1,.3-.1,1.008,1.008,0,0,1,.523.142.46.46,0,0,1,.239.414.646.646,0,0,1-.056.246c-.037.09-.078.183-.119.28Z" transform="translate(-66.042 375.151)" fill="#fff"/>
    <path id="path38" d="M234.745,303.782a2.792,2.792,0,0,1,1.978.679,2.716,2.716,0,0,1,.728,2.083v5.077q0,.56-.65.56c-.463,0-.7-.187-.7-.56v-4.643a4.208,4.208,0,0,0-.071-.814,1.468,1.468,0,0,0-.261-.616,1.266,1.266,0,0,0-.515-.384,2.193,2.193,0,0,0-.832-.134,1.774,1.774,0,0,0-1.03.287,2.056,2.056,0,0,0-.649.735,3.389,3.389,0,0,0-.34,1,6.209,6.209,0,0,0-.1,1.1v3.464q0,.56-.65.56c-.463,0-.7-.187-.7-.56v-4.643a4.209,4.209,0,0,0-.071-.814,1.468,1.468,0,0,0-.261-.616,1.266,1.266,0,0,0-.515-.384,2.193,2.193,0,0,0-.832-.134,1.8,1.8,0,0,0-1.03.28,2,2,0,0,0-.649.728,3.5,3.5,0,0,0-.34,1,6.206,6.206,0,0,0-.1,1.1v3.4a.587.587,0,0,1-.183.5.828.828,0,0,1-.5.134.778.778,0,0,1-.489-.134.608.608,0,0,1-.175-.5v-6.991a.591.591,0,0,1,.157-.478.741.741,0,0,1,.474-.127.772.772,0,0,1,.482.127.573.573,0,0,1,.164.478v.75a2.1,2.1,0,0,1,.127-.287,1.912,1.912,0,0,1,.411-.526,2.673,2.673,0,0,1,.769-.485,3.008,3.008,0,0,1,1.209-.217,2.872,2.872,0,0,1,1.575.392,2.216,2.216,0,0,1,.877,1.06,2.5,2.5,0,0,1,1.03-1.053A3.366,3.366,0,0,1,234.745,303.782Z" transform="translate(-68.776 375.201)" fill="#fff"/>
    <path id="path40" d="M250.792,307.873c0,.384-.216.575-.65.575H244.76a2.838,2.838,0,0,0,.642,1.993,2.329,2.329,0,0,0,1.81.7,2.448,2.448,0,0,0,.8-.119,2.325,2.325,0,0,0,.579-.287,2.1,2.1,0,0,0,.388-.343q.151-.174.246-.3a1.162,1.162,0,0,1,.213-.239.5.5,0,0,1,.31-.078.8.8,0,0,1,.437.142.445.445,0,0,1,.213.384,1.022,1.022,0,0,1-.175.5,3.959,3.959,0,0,1-.373.485,2.965,2.965,0,0,1-.586.5,3.42,3.42,0,0,1-.862.4,3.919,3.919,0,0,1-1.187.161,4.036,4.036,0,0,1-1.605-.31,3.506,3.506,0,0,1-1.228-.877,3.846,3.846,0,0,1-.776-1.355,5.74,5.74,0,0,1,0-3.471,3.949,3.949,0,0,1,.769-1.347,3.393,3.393,0,0,1,1.2-.877,3.828,3.828,0,0,1,1.575-.31,3.778,3.778,0,0,1,1.568.31,3.234,3.234,0,0,1,1.138.862,3.812,3.812,0,0,1,.7,1.3A5.2,5.2,0,0,1,250.792,307.873Zm-3.639-2.923a2.352,2.352,0,0,0-.967.183,2.065,2.065,0,0,0-.7.5,2.365,2.365,0,0,0-.452.735,3.226,3.226,0,0,0-.213.885h4.606a3.869,3.869,0,0,0-.2-.87,2.276,2.276,0,0,0-.426-.735,2.1,2.1,0,0,0-.687-.5A2.291,2.291,0,0,0,247.153,304.95Z" transform="translate(-73.002 375.198)" fill="#fff"/>
    <path id="path42" d="M256.633,311.539a.587.587,0,0,1-.183.5.829.829,0,0,1-.5.134.778.778,0,0,1-.489-.134.607.607,0,0,1-.175-.5v-6.991a.591.591,0,0,1,.157-.478.741.741,0,0,1,.474-.127.771.771,0,0,1,.482.127.573.573,0,0,1,.164.478v.75a2.718,2.718,0,0,1,.6-.75,3.4,3.4,0,0,1,.832-.526,3.046,3.046,0,0,1,1.292-.239,2.917,2.917,0,0,1,2.027.7,2.77,2.77,0,0,1,.776,2.154v4.979q0,.56-.649.56c-.463,0-.7-.187-.7-.56v-4.644a2.3,2.3,0,0,0-.388-1.437,1.69,1.69,0,0,0-1.4-.5,1.944,1.944,0,0,0-1.06.28,2.237,2.237,0,0,0-.72.728,3.48,3.48,0,0,0-.411,1,4.591,4.591,0,0,0-.134,1.094v3.4Z" transform="translate(-75.883 375.201)" fill="#fff"/>
    <path id="path44" d="M266.278,304.491a.492.492,0,0,1-.426-.153.85.85,0,0,1,0-.844.5.5,0,0,1,.426-.153h.713V301.7a1.33,1.33,0,0,1,.056-.448.54.54,0,0,1,.228-.254,1.167,1.167,0,0,1,.616-.175c.295,0,.444.153.444.463v2.057h1.489a.493.493,0,0,1,.426.153.7.7,0,0,1,.112.422.691.691,0,0,1-.112.422.5.5,0,0,1-.426.153h-1.489v4.722a1.57,1.57,0,0,0,.213.959.884.884,0,0,0,.72.254.929.929,0,0,0,.325-.049,2.6,2.6,0,0,0,.246-.1c.075-.034.146-.063.213-.1a.548.548,0,0,1,.246-.049.5.5,0,0,1,.388.19.68.68,0,0,1,.168.463c0,.254-.164.455-.489.6a3.119,3.119,0,0,1-1.236.216,2.185,2.185,0,0,1-1.616-.534,2.144,2.144,0,0,1-.523-1.557v-5.021Z" transform="translate(-78.402 375.915)" fill="#fff"/>
    <path id="path46" d="M210.848,326.407a4.4,4.4,0,0,1,2.019,1.124,2.775,2.775,0,0,1,.642,1.922,3.17,3.17,0,0,1-.31,1.452,2.965,2.965,0,0,1-.821,1,3.392,3.392,0,0,1-1.187.582,5.2,5.2,0,0,1-1.385.183,7.65,7.65,0,0,1-2.273-.336,4.14,4.14,0,0,1-1.844-1.15.983.983,0,0,1-.246-.373,1.128,1.128,0,0,1-.041-.28.6.6,0,0,1,.239-.463.74.74,0,0,1,.489-.209.517.517,0,0,1,.254.1,1.541,1.541,0,0,1,.205.175,4.232,4.232,0,0,0,1.5,1.06,4.746,4.746,0,0,0,1.68.28,2.791,2.791,0,0,0,1.669-.47,1.592,1.592,0,0,0,.657-1.381,1.683,1.683,0,0,0-.474-1.262,3.811,3.811,0,0,0-1.568-.784l-1.377-.4a5.074,5.074,0,0,1-2.191-1.116,2.61,2.61,0,0,1-.72-1.963,2.65,2.65,0,0,1,.34-1.374,2.986,2.986,0,0,1,.885-.948,3.864,3.864,0,0,1,1.2-.549,5.093,5.093,0,0,1,1.306-.175,5.719,5.719,0,0,1,2.049.366,3.766,3.766,0,0,1,1.624,1.213,1.336,1.336,0,0,1,.175.3.7.7,0,0,1,.049.254.566.566,0,0,1-.205.448.659.659,0,0,1-.444.175.6.6,0,0,1-.291-.071,1.425,1.425,0,0,1-.31-.246,3.9,3.9,0,0,0-1.217-.959,3.4,3.4,0,0,0-1.441-.287,3.235,3.235,0,0,0-.855.112,2.365,2.365,0,0,0-.735.336,1.728,1.728,0,0,0-.523.567,1.566,1.566,0,0,0-.2.791,1.692,1.692,0,0,0,.086.549,1.262,1.262,0,0,0,.3.47,2.119,2.119,0,0,0,.594.414,6.257,6.257,0,0,0,.948.366Z" transform="translate(-63.86 371.039)" fill="#fff"/>
    <path id="path48" d="M225.184,329.188c0,.384-.216.575-.649.575h-5.383a2.838,2.838,0,0,0,.642,1.993,2.329,2.329,0,0,0,1.81.7,2.447,2.447,0,0,0,.8-.119,2.321,2.321,0,0,0,.579-.287,2.1,2.1,0,0,0,.388-.343q.151-.174.246-.3a1.166,1.166,0,0,1,.213-.239.5.5,0,0,1,.31-.078.8.8,0,0,1,.437.142.444.444,0,0,1,.213.384,1.022,1.022,0,0,1-.175.5,3.959,3.959,0,0,1-.373.485,2.96,2.96,0,0,1-.586.5,3.418,3.418,0,0,1-.862.4,3.92,3.92,0,0,1-1.187.16,4.036,4.036,0,0,1-1.605-.31,3.506,3.506,0,0,1-1.228-.877,3.846,3.846,0,0,1-.776-1.355,5.74,5.74,0,0,1,0-3.471,3.949,3.949,0,0,1,.769-1.348,3.393,3.393,0,0,1,1.2-.877,3.828,3.828,0,0,1,1.575-.31,3.779,3.779,0,0,1,1.568.31,3.234,3.234,0,0,1,1.138.862,3.812,3.812,0,0,1,.7,1.3A5.2,5.2,0,0,1,225.184,329.188Zm-3.639-2.923a2.352,2.352,0,0,0-.967.183,2.065,2.065,0,0,0-.7.5,2.363,2.363,0,0,0-.452.735,3.227,3.227,0,0,0-.213.885h4.606a3.867,3.867,0,0,0-.2-.87,2.277,2.277,0,0,0-.426-.735,2.1,2.1,0,0,0-.687-.5A2.29,2.29,0,0,0,221.545,326.265Z" transform="translate(-66.83 370.061)" fill="#fff"/>
    <path id="path50" d="M231.025,332.9a.587.587,0,0,1-.183.5.828.828,0,0,1-.5.134.778.778,0,0,1-.489-.134.608.608,0,0,1-.175-.5v-6.991a.591.591,0,0,1,.157-.478.741.741,0,0,1,.474-.127.772.772,0,0,1,.482.127.573.573,0,0,1,.164.478v.911a2.66,2.66,0,0,1,2.437-1.515.577.577,0,0,1,.679.672.788.788,0,0,1-.157.541.678.678,0,0,1-.523.175q-2.374,0-2.374,2.986V332.9Z" transform="translate(-69.71 370.013)" fill="#fff"/>
    <path id="path52" d="M236.236,326.458c-.041-.1-.082-.205-.119-.295a.69.69,0,0,1-.056-.265.488.488,0,0,1,.246-.429.971.971,0,0,1,.545-.16q.364,0,.538.448l2.437,6.032,2.452-6.066a.846.846,0,0,1,.205-.317.449.449,0,0,1,.3-.1,1.007,1.007,0,0,1,.523.142.46.46,0,0,1,.239.414.646.646,0,0,1-.056.246c-.037.09-.078.183-.119.28l-2.833,6.734a.654.654,0,0,1-.246.3,1.241,1.241,0,0,1-1.03,0,.654.654,0,0,1-.246-.3Z" transform="translate(-71.25 370.013)" fill="#fff"/>
    <path id="path54" d="M247.239,322.128a.841.841,0,0,1,.246-.646.915.915,0,0,1,1.217,0,.97.97,0,0,1,0,1.292.916.916,0,0,1-1.217,0A.841.841,0,0,1,247.239,322.128Zm.19,2.841a.6.6,0,0,1,.175-.5.785.785,0,0,1,.489-.134.829.829,0,0,1,.5.134.6.6,0,0,1,.183.5v6.958a.587.587,0,0,1-.183.5.829.829,0,0,1-.5.134.778.778,0,0,1-.489-.134.608.608,0,0,1-.175-.5Z" transform="translate(-73.943 370.992)" fill="#fff"/>
    <path id="path56" d="M257.072,331.368a1.909,1.909,0,0,1,.31-.362.5.5,0,0,1,.325-.093.719.719,0,0,1,.437.16.484.484,0,0,1,.213.4.888.888,0,0,1-.112.429,3.025,3.025,0,0,1-.291.47,2.792,2.792,0,0,1-.586.582,3.625,3.625,0,0,1-.9.5,3.455,3.455,0,0,1-1.258.209,3.85,3.85,0,0,1-1.6-.317,3.326,3.326,0,0,1-1.172-.885,3.936,3.936,0,0,1-.728-1.355,5.676,5.676,0,0,1-.254-1.732,5.611,5.611,0,0,1,.254-1.725,3.933,3.933,0,0,1,.728-1.348,3.19,3.19,0,0,1,1.172-.877,3.922,3.922,0,0,1,1.6-.31,3.845,3.845,0,0,1,1.195.168,3.477,3.477,0,0,1,.885.422,2.643,2.643,0,0,1,.6.56,3.321,3.321,0,0,1,.355.56,1.309,1.309,0,0,1,.093.239.823.823,0,0,1,.03.239.555.555,0,0,1-.205.455.688.688,0,0,1-.444.168.543.543,0,0,1-.291-.071,1.187,1.187,0,0,1-.291-.325c-.063-.086-.142-.194-.239-.332a1.992,1.992,0,0,0-.366-.4,2.026,2.026,0,0,0-.545-.325,2.049,2.049,0,0,0-.784-.134,2,2,0,0,0-1.758.81,3.773,3.773,0,0,0-.571,2.206,3.906,3.906,0,0,0,.571,2.255,1.994,1.994,0,0,0,1.758.825,2.316,2.316,0,0,0,.728-.1,1.849,1.849,0,0,0,.515-.261,1.713,1.713,0,0,0,.355-.34C256.9,331.6,256.986,331.483,257.072,331.368Z" transform="translate(-74.959 370.061)" fill="#fff"/>
    <path id="path58" d="M269.442,329.188c0,.384-.217.575-.65.575h-5.383a2.838,2.838,0,0,0,.642,1.993,2.329,2.329,0,0,0,1.81.7,2.448,2.448,0,0,0,.8-.119,2.322,2.322,0,0,0,.579-.287,2.1,2.1,0,0,0,.388-.343q.151-.174.246-.3a1.167,1.167,0,0,1,.213-.239.5.5,0,0,1,.31-.078.8.8,0,0,1,.437.142.444.444,0,0,1,.213.384,1.022,1.022,0,0,1-.175.5,3.958,3.958,0,0,1-.373.485,2.959,2.959,0,0,1-.586.5,3.418,3.418,0,0,1-.862.4,3.92,3.92,0,0,1-1.187.16,4.036,4.036,0,0,1-1.605-.31,3.505,3.505,0,0,1-1.228-.877,3.845,3.845,0,0,1-.776-1.355,5.739,5.739,0,0,1,0-3.471,3.948,3.948,0,0,1,.769-1.348,3.394,3.394,0,0,1,1.2-.877,3.828,3.828,0,0,1,1.575-.31,3.778,3.778,0,0,1,1.568.31,3.234,3.234,0,0,1,1.138.862,3.811,3.811,0,0,1,.7,1.3A5.2,5.2,0,0,1,269.442,329.188Zm-3.643-2.923a2.352,2.352,0,0,0-.967.183,2.065,2.065,0,0,0-.7.5,2.364,2.364,0,0,0-.452.735,3.23,3.23,0,0,0-.213.885h4.606a3.866,3.866,0,0,0-.2-.87,2.277,2.277,0,0,0-.425-.735,2.1,2.1,0,0,0-.687-.5A2.29,2.29,0,0,0,265.8,326.265Z" transform="translate(-77.498 370.061)" fill="#fff"/>
  </g>
</svg>
