<svg xmlns="http://www.w3.org/2000/svg" width="44.55" height="40.5" viewBox="0 0 44.55 40.5">
  <g id="ic_recive_money" transform="translate(14970.001 10830.25)">
    <path id="Path_22867" data-name="Path 22867" d="M23.275,22.25a6.075,6.075,0,1,0,6.075,6.075A6.075,6.075,0,0,0,23.275,22.25Zm0,8.1A2.025,2.025,0,1,1,25.3,28.325,2.025,2.025,0,0,1,23.275,30.35ZM21.837,17.613a2.025,2.025,0,0,0,.668.425,1.9,1.9,0,0,0,1.539,0,2.025,2.025,0,0,0,.668-.425l4.637-4.556A2.091,2.091,0,0,0,26.393,10.1L25.3,11.295V4.025a2.025,2.025,0,1,0-4.05,0v7.27L20.156,10.1A2.091,2.091,0,1,0,17.2,13.056ZM37.45,28.325a2.025,2.025,0,1,0-2.025,2.025A2.025,2.025,0,0,0,37.45,28.325ZM39.475,14.15H33.4a2.025,2.025,0,0,0,0,4.05h6.075A2.025,2.025,0,0,1,41.5,20.225v16.2a2.025,2.025,0,0,1-2.025,2.025H7.075A2.025,2.025,0,0,1,5.05,36.425v-16.2A2.025,2.025,0,0,1,7.075,18.2H13.15a2.025,2.025,0,1,0,0-4.05H7.075A6.075,6.075,0,0,0,1,20.225v16.2A6.075,6.075,0,0,0,7.075,42.5h32.4a6.075,6.075,0,0,0,6.075-6.075v-16.2A6.075,6.075,0,0,0,39.475,14.15ZM9.1,28.325A2.025,2.025,0,1,0,11.125,26.3,2.025,2.025,0,0,0,9.1,28.325Z" transform="translate(-14971.001 -10832.25)" fill="#2c3e50"/>
    <path id="Path_22988" data-name="Path 22988" d="M21.837,17.613a2.025,2.025,0,0,0,.668.425,1.9,1.9,0,0,0,1.539,0,2.025,2.025,0,0,0,.668-.425l4.637-4.556A2.091,2.091,0,0,0,26.393,10.1L25.3,11.295V4.025a2.025,2.025,0,1,0-4.05,0v7.27L20.156,10.1A2.091,2.091,0,1,0,17.2,13.056Z" transform="translate(-14971.001 -10832.25)" fill="#ec1b24"/>
  </g>
</svg>
