<svg xmlns="http://www.w3.org/2000/svg" width="45.514" height="41.365" viewBox="0 0 45.514 41.365">
  <g id="ic_send_money" transform="translate(15390.756 10823.686)">
    <path id="Path_22866" data-name="Path 22866" d="M20.571,10.27l1.117-1.221v7.427a2.069,2.069,0,1,0,4.138,0V9.049l1.117,1.138a2.079,2.079,0,1,0,3.02-2.855L25.226,2.595a2.139,2.139,0,0,0-2.938,0L17.55,7.249a2.136,2.136,0,1,0,3.02,3.02Zm3.186,12.413a6.206,6.206,0,1,0,6.206,6.206A6.206,6.206,0,0,0,23.757,22.683Zm0,8.275a2.069,2.069,0,1,1,2.069-2.069A2.069,2.069,0,0,1,23.757,30.958ZM9.275,28.889a2.069,2.069,0,1,0,2.069-2.069A2.069,2.069,0,0,0,9.275,28.889Zm28.963,0a2.069,2.069,0,1,0-2.069,2.069A2.069,2.069,0,0,0,38.238,28.889Zm2.069-14.482H32.032a2.069,2.069,0,0,0,0,4.138h8.275a2.069,2.069,0,0,1,2.069,2.069v16.55a2.069,2.069,0,0,1-2.069,2.069H7.206a2.069,2.069,0,0,1-2.069-2.069V20.614a2.069,2.069,0,0,1,2.069-2.069h8.275a2.069,2.069,0,1,0,0-4.138H7.206A6.206,6.206,0,0,0,1,20.614v16.55a6.206,6.206,0,0,0,6.206,6.206h33.1a6.206,6.206,0,0,0,6.206-6.206V20.614A6.206,6.206,0,0,0,40.307,14.407Z" transform="translate(-15391.756 -10825.69)" fill="#2c3e50"/>
    <path id="Path_22989" data-name="Path 22989" d="M20.571,10.27l1.117-1.221v7.427a2.069,2.069,0,1,0,4.138,0V9.049l1.117,1.138a2.079,2.079,0,1,0,3.02-2.855L25.226,2.595a2.139,2.139,0,0,0-2.938,0L17.55,7.249a2.136,2.136,0,1,0,3.02,3.02Z" transform="translate(-15391.756 -10825.69)" fill="#ec1b24"/>
  </g>
</svg>
