<svg xmlns="http://www.w3.org/2000/svg" width="43.928" height="42.238" viewBox="0 0 43.928 42.238">
  <g id="ic_withdraw" transform="translate(14115 10827)">
    <path id="Path_16492" data-name="Path 16492" d="M44.859,7H11.069A5.069,5.069,0,0,0,6,12.069v32.1a5.069,5.069,0,0,0,5.069,5.069h33.79a5.069,5.069,0,0,0,5.069-5.069v-32.1A5.069,5.069,0,0,0,44.859,7Zm1.69,37.169a1.69,1.69,0,0,1-1.69,1.69H11.069a1.69,1.69,0,0,1-1.69-1.69v-32.1a1.69,1.69,0,0,1,1.69-1.69h33.79a1.69,1.69,0,0,1,1.69,1.69Z" transform="translate(-14121 -10834)" fill="#2c3e50"/>
    <path id="Path_16493" data-name="Path 16493" d="M40.5,27.464a1.69,1.69,0,0,0,0-3.379H21.77L23.949,21.9a1.69,1.69,0,0,0-2.382-2.382L16.5,24.584a1.683,1.683,0,0,0,1.191,2.881Z" transform="translate(-14122.553 -10835.88)" fill="#ec1b24"/>
    <path id="Path_16494" data-name="Path 16494" d="M42.5,36H19.69a1.69,1.69,0,1,0,0,3.379H38.418l-2.179,2.188a1.69,1.69,0,1,0,2.382,2.382l5.069-5.069A1.683,1.683,0,0,0,42.5,36Z" transform="translate(-14122.863 -10838.502)" fill="#ec1b24"/>
  </g>
</svg>
